<?xml version="1.0" standalone="no"?>
<!DOCTYPE svg PUBLIC "-//W3C//DTD SVG 20010904//EN"
 "http://www.w3.org/TR/2001/REC-SVG-20010904/DTD/svg10.dtd">
<svg version="1.0" xmlns="http://www.w3.org/2000/svg"
 width="201.000000pt" height="201.000000pt" viewBox="0 0 201.000000 201.000000"
 preserveAspectRatio="xMidYMid meet">
<metadata>
Created by potrace 1.11, written by Peter Selinger 2001-2013
</metadata>
<g transform="translate(0.000000,201.000000) scale(0.100000,-0.100000)"
fill="#000000" stroke="none">
<path d="M825 2003 c-57 -7 -179 -35 -199 -47 -98 -54 -106 -73 -106 -248 l0
-148 244 0 245 0 -2 -32 -2 -33 -380 -5 c-366 -5 -382 -6 -426 -27 -90 -43
-154 -141 -182 -278 -15 -71 -16 -297 -2 -360 4 -16 8 -34 9 -40 24 -111 101
-217 185 -252 43 -19 240 -26 242 -9 1 6 2 72 4 146 1 74 8 155 14 180 19 65
65 124 124 156 52 28 53 29 252 31 474 7 445 5 511 38 74 38 120 101 129 178
3 28 5 167 3 309 l-3 256 -31 44 c-38 52 -137 106 -234 127 -60 13 -325 22
-395 14z m-21 -197 c21 -44 6 -90 -36 -112 -54 -28 -111 0 -122 60 -17 94 117
138 158 52z"/>
<path d="M1554 1349 c0 -156 -1 -158 -32 -222 -32 -64 -66 -98 -127 -127 -23
-11 -103 -15 -355 -20 l-325 -5 -58 -28 c-63 -31 -99 -71 -121 -135 -21 -60
-23 -563 -2 -613 23 -53 106 -126 166 -143 62 -18 98 -27 140 -34 69 -11 379
-6 430 7 25 6 53 13 63 16 46 11 113 53 134 84 21 32 23 44 23 182 l0 149
-243 0 -243 0 -1 35 -1 34 387 3 386 3 49 29 c62 36 88 66 126 141 42 83 58
181 55 328 -3 172 -26 266 -85 352 -63 92 -116 116 -260 119 l-105 3 -1 -158z
m-208 -1044 c36 -46 19 -115 -33 -132 -61 -20 -107 9 -117 72 -12 79 100 123
150 60z"/>
</g>
</svg>
